<!-- icon666.com - MILLIONS vector ICONS FREE --><svg viewBox="0 0 32 32" xmlns="http://www.w3.org/2000/svg"><g id="card"><path d="m26 6.01611h-20a3.00328 3.00328 0 0 0 -3 3v13.96778a3.00328 3.00328 0 0 0 3 3h20a3.00328 3.00328 0 0 0 3-3v-13.96778a3.00328 3.00328 0 0 0 -3-3zm-20 2h20a1.001 1.001 0 0 1 1 1v2.9834h-22v-2.9834a1.001 1.001 0 0 1 1-1zm20 15.96778h-20a1.001 1.001 0 0 1 -1-1v-8.98438h22v8.98438a1.001 1.001 0 0 1 -1 1zm-2-2.9834h-3.99994a1.00018 1.00018 0 0 1 -.00006-2h4a1.00019 1.00019 0 0 1 0 2z"></path></g></svg>